<svg width="50" height="50" viewBox="0 0 50 50" fill="none" xmlns="http://www.w3.org/2000/svg">
<path fill-rule="evenodd" clip-rule="evenodd" d="M16.5625 6.63755C19.9783 5.25578 23.6813 4.73406 27.3459 5.11824C31.0105 5.50241 34.5247 6.78072 37.5797 8.84084C40.6348 10.901 43.1371 13.6798 44.8668 16.9333C46.5965 20.1868 47.5008 23.8153 47.5 27.5001C47.5 28.1631 47.2366 28.799 46.7678 29.2678C46.299 29.7367 45.6631 30.0001 45 30.0001C44.337 30.0001 43.7011 29.7367 43.2323 29.2678C42.7634 28.799 42.5 28.1631 42.5 27.5001C42.5012 24.6339 41.7983 21.8112 40.4532 19.2803C39.1081 16.7493 37.162 14.5875 34.7858 12.9847C32.4095 11.382 29.6761 10.3874 26.8255 10.0885C23.9749 9.78948 21.0946 10.1952 18.4375 11.2701C18.1312 11.4053 17.8008 11.4776 17.466 11.4828C17.1311 11.4879 16.7987 11.4257 16.4884 11.2999C16.178 11.174 15.8961 10.9871 15.6594 10.7503C15.4227 10.5134 15.236 10.2314 15.1104 9.92101C14.9847 9.61061 14.9227 9.27812 14.9281 8.9433C14.9334 8.60847 15.0059 8.27813 15.1414 7.97188C15.2768 7.66562 15.4724 7.3897 15.7165 7.16049C15.9607 6.93128 16.2483 6.75345 16.5625 6.63755V6.63755ZM11.655 12.3976C12.1518 12.8363 12.454 13.4543 12.4952 14.1158C12.5365 14.7772 12.3134 15.428 11.875 15.9251C9.04968 19.1182 7.49312 23.2364 7.50002 27.5001C7.50002 28.1631 7.23663 28.799 6.76779 29.2678C6.29894 29.7367 5.66306 30.0001 5.00002 30.0001C4.33698 30.0001 3.70109 29.7367 3.23225 29.2678C2.76341 28.799 2.50002 28.1631 2.50002 27.5001C2.49305 22.0185 4.49409 16.7242 8.12502 12.6176C8.34229 12.3712 8.60597 12.1701 8.90099 12.0257C9.19602 11.8813 9.51661 11.7965 9.84443 11.7761C10.1723 11.7557 10.5009 11.8 10.8116 11.9067C11.1222 12.0133 11.4088 12.1801 11.655 12.3976V12.3976Z" fill="#0B0B0B"/>
<path fill-rule="evenodd" clip-rule="evenodd" d="M12.5 27.5C12.5 24.1848 13.8169 21.0054 16.1611 18.6612C18.5053 16.317 21.6848 15 25 15C28.3152 15 31.4946 16.317 33.8388 18.6612C36.183 21.0054 37.5 24.1848 37.5 27.5C37.5 28.163 37.2366 28.7989 36.7677 29.2678C36.2989 29.7366 35.663 30 35 30C34.3369 30 33.701 29.7366 33.2322 29.2678C32.7634 28.7989 32.5 28.163 32.5 27.5C32.5 25.5109 31.7098 23.6032 30.3033 22.1967C28.8967 20.7902 26.9891 20 25 20C23.0108 20 21.1032 20.7902 19.6967 22.1967C18.2901 23.6032 17.5 25.5109 17.5 27.5C17.5 31.6925 16.6375 35.69 15.08 39.3225C14.8184 39.9318 14.3255 40.4123 13.7097 40.6582C13.0938 40.9041 12.4056 40.8953 11.7962 40.6338C11.1869 40.3722 10.7064 39.8793 10.4605 39.2634C10.2146 38.6476 10.2234 37.9593 10.485 37.35C11.8191 34.2378 12.5048 30.8862 12.5 27.5V27.5ZM34.8025 32.53C35.1269 32.5814 35.438 32.6963 35.718 32.868C35.998 33.0397 36.2415 33.2649 36.4344 33.5307C36.6273 33.7966 36.766 34.0978 36.8424 34.4173C36.9189 34.7367 36.9316 35.0681 36.88 35.3925C36.5539 37.4491 36.0989 39.4831 35.5175 41.4825C35.432 41.8047 35.2831 42.1065 35.0793 42.3702C34.8756 42.6339 34.6211 42.8543 34.331 43.0182C34.0408 43.1822 33.7208 43.2865 33.3898 43.325C33.0587 43.3635 32.7233 43.3354 32.4033 43.2424C32.0832 43.1494 31.785 42.9934 31.5262 42.7834C31.2673 42.5735 31.0531 42.3139 30.896 42.02C30.7389 41.726 30.6422 41.4036 30.6116 41.0718C30.5809 40.7399 30.6169 40.4053 30.7175 40.0875C31.235 38.305 31.645 36.475 31.9425 34.6075C32.0469 33.9533 32.4068 33.3672 32.9431 32.9782C33.4793 32.5891 34.1481 32.4288 34.8025 32.5325V32.53Z" fill="#0B0B0B"/>
<path fill-rule="evenodd" clip-rule="evenodd" d="M24.9998 25C25.6628 25 26.2987 25.2634 26.7676 25.7322C27.2364 26.2011 27.4998 26.837 27.4998 27.5C27.4998 33.09 26.3498 38.42 24.2748 43.26C24.1453 43.5617 23.9576 43.835 23.7225 44.0641C23.4874 44.2933 23.2094 44.474 22.9045 44.5957C22.5996 44.7175 22.2736 44.778 21.9453 44.7738C21.617 44.7696 21.2928 44.7008 20.991 44.5713C20.6893 44.4417 20.4161 44.2541 20.1869 44.0189C19.9577 43.7838 19.7771 43.5059 19.6553 43.2009C19.5336 42.896 19.4731 42.5701 19.4773 42.2418C19.4815 41.9135 19.5503 41.5892 19.6798 41.2875C21.5468 36.931 22.5063 32.2397 22.4998 27.5C22.4998 26.837 22.7632 26.2011 23.232 25.7322C23.7009 25.2634 24.3367 25 24.9998 25V25Z" fill="#0B0B0B"/>
</svg>
