<svg width="35" height="30" viewBox="0 0 35 30" fill="none" xmlns="http://www.w3.org/2000/svg">
<path d="M12.7054 26.955C10.8515 27.1908 9.57765 26.9605 8.6967 26.5081C7.72081 26.0068 7.29501 25.268 7.0956 24.7583C7.01651 24.5761 6.78735 24.1616 6.48839 23.7452C6.17511 23.3088 5.8529 22.9675 5.61255 22.8429C5.4396 22.7577 5.2498 22.6427 5.08291 22.514C4.92799 22.3944 4.73717 22.2212 4.63142 22.0085C4.57543 21.896 4.52224 21.7297 4.55898 21.538C4.59831 21.3329 4.72379 21.184 4.86465 21.0893C5.10583 20.927 5.44906 20.8824 5.80947 20.8774M12.7054 26.955L33.671 15.3794C33.67 18.4861 32.6057 21.5192 30.6204 24.0517C28.6407 26.5771 25.8432 28.4788 22.615 29.4836C22.318 29.5325 22.1978 29.4609 22.1586 29.4286C22.1097 29.3883 22.0782 29.3199 22.0782 29.2401C22.0782 29.0685 22.0805 28.7716 22.0837 28.3736C22.0852 28.1751 22.087 27.9515 22.0887 27.7057C22.094 26.9698 22.0992 26.0409 22.0992 25.0108C22.0992 23.9761 21.8487 23.154 21.4628 22.5445C23.0666 22.304 24.6978 21.8361 26.0017 20.8343C27.5953 19.6099 28.6264 17.6478 28.6264 14.572C28.6264 12.8591 28.0068 11.448 26.9848 10.3227C27.2244 9.61065 27.5343 8.08337 26.6957 6.16313L26.6031 5.95107L26.3815 5.88442L26.2375 6.36323C26.3815 5.88442 26.3811 5.88428 26.3806 5.88414L26.3797 5.88386L26.3777 5.88327L26.3732 5.88199L26.3628 5.87912C26.3552 5.87706 26.3461 5.87475 26.3356 5.87228C26.3145 5.86732 26.2878 5.86171 26.2552 5.85614C26.1902 5.84499 26.1022 5.83407 25.9907 5.82892C25.7675 5.8186 25.4521 5.83151 25.039 5.9106C24.2441 6.06282 23.0913 6.4594 21.5375 7.40348C20.2125 7.08105 18.8164 6.92056 17.4226 6.92056C16.0284 6.92056 14.6319 7.08115 13.3065 7.40377C11.7529 6.46858 10.6011 6.07256 9.80773 5.9181C9.39555 5.83786 9.08098 5.82301 8.85862 5.83145C8.74756 5.83567 8.65998 5.84567 8.59522 5.85606C8.56287 5.86125 8.53627 5.86652 8.51537 5.87118C8.50492 5.87352 8.49589 5.8757 8.48829 5.87764L8.47794 5.88035L8.47357 5.88156L8.47158 5.88211L8.47063 5.88238C8.47018 5.88251 8.46972 5.88264 8.6077 6.36323L8.46972 5.88264L8.24362 5.94756L8.14948 6.16313C7.31085 8.08353 7.62089 9.61089 7.86045 10.3229C6.83789 11.4509 6.21879 12.8777 6.21879 14.572C6.21879 17.6378 7.24429 19.5994 8.83191 20.8262C10.1322 21.831 11.7602 22.3029 13.3644 22.5446C13.1358 22.906 12.9534 23.3436 12.8454 23.8575C12.3934 24.0175 11.7557 24.1697 11.0895 24.1136C10.3154 24.0484 9.48064 23.7028 8.81711 22.6814L8.81722 22.6813L8.81083 22.672C8.63405 22.4129 8.28476 21.9696 7.78958 21.5889C7.29421 21.2081 6.62015 20.8658 5.80947 20.8774M12.7054 26.955C12.7072 27.3912 12.7109 27.8035 12.7146 28.1591C12.7162 28.3172 12.7178 28.4635 12.7193 28.5954C12.7226 28.8919 12.725 29.1161 12.725 29.2401C12.725 29.3173 12.6955 29.3801 12.6477 29.4189C12.606 29.4528 12.4814 29.5237 12.1819 29.4817C5.70543 27.4895 1.09032 21.9225 1.09032 15.3794C1.09032 7.19883 8.33791 0.5 17.3806 0.5C26.4233 0.5 33.6709 7.19875 33.671 15.3793L12.7054 26.955ZM5.80947 20.8774L5.8163 21.3774M5.80947 20.8774C5.80933 20.8774 5.80918 20.8774 5.80904 20.8774L5.8163 21.3774M5.8163 21.3774C7.13854 21.3582 8.083 22.4924 8.39782 22.9538L5.83729 22.3963C5.24963 22.1079 4.41012 21.3966 5.8163 21.3774Z" fill="white" stroke="black" stroke-linecap="square"/>
</svg>
