<svg width="254" height="186" viewBox="0 0 254 186" fill="none" xmlns="http://www.w3.org/2000/svg">
<path d="M44.1333 0C46.1688 0.357856 48.2241 0.616307 50.2301 1.07357C63.3875 4.09546 72.1099 12.2963 77.1742 24.7318C80.0653 31.8193 81.4322 39.2746 81.8452 46.8791C82.1992 53.4199 82.2779 59.9806 82.2975 66.5313C82.3467 79.6527 82.268 92.7641 82.2385 105.885C82.2287 108.868 80.9307 111.124 78.2854 112.406C75.6598 113.689 73.0736 113.4 70.743 111.591C68.914 110.17 68.0683 108.192 68.0781 105.876C68.0978 93.6289 68.1371 81.3923 68.147 69.1456C68.1568 60.4875 68.383 51.8195 67.2423 43.2011C66.4654 37.3462 65.128 31.6503 62.2468 26.4316C58.5395 19.7218 52.8459 15.9445 45.392 14.7516C40.4162 13.9564 35.4994 14.2546 30.7399 15.9146C21.8896 18.9862 16.8745 25.4177 15.1143 34.5629C14.0817 39.9009 14.1309 45.3085 14.2391 50.7161C14.2686 52.0282 14.3177 53.3404 14.2587 54.6525C14.1014 58.1416 11.3283 61.084 8.02423 61.3325C4.06128 61.6307 0.944027 59.3444 0.236007 55.6267C0.186839 55.3682 0.0786689 55.1197 0 54.8712C0 50.3383 0 45.8055 0 41.2727C0.0688353 41.0242 0.167172 40.7757 0.196673 40.5172C0.531016 37.6444 0.717854 34.7518 1.1997 31.9088C3.95311 15.8848 15.5371 3.99605 31.2906 0.954282C33.1983 0.586486 35.1257 0.318094 37.0531 0.00994042C39.4131 -9.25775e-09 41.7732 0 44.1333 0Z" fill="#CBAC77"/>
<path d="M33.0413 76.4816C33.0413 65.1097 33.0314 53.7379 33.0413 42.366C33.0413 38.2805 35.244 35.4276 38.9021 34.692C42.924 33.8868 46.9362 36.9882 47.2115 41.1235C47.241 41.6404 47.241 42.1573 47.241 42.6742C47.241 65.06 47.2115 87.4459 47.2607 109.832C47.2705 115.11 48.539 120.14 51.1744 124.752C54.0164 129.713 58.2743 132.864 63.673 134.414C70.0058 136.224 76.4075 136.243 82.7797 134.633C91.3251 132.486 96.5664 126.79 99.3297 118.549C100.667 114.563 101.188 110.458 101.051 106.243C100.933 102.585 100.982 98.9271 100.952 95.269C100.874 86.3624 100.775 77.4657 100.726 68.5591C100.706 65.2986 102.614 62.6843 105.594 61.6902C108.406 60.7459 111.533 61.72 113.411 64.1455C114.355 65.3682 114.877 66.7698 114.886 68.3404C114.926 72.2768 114.926 76.2132 114.965 80.1496C115.044 88.3008 115.004 96.442 115.24 104.593C115.457 112.088 114.523 119.335 111.612 126.263C106.154 139.265 96.4189 146.9 82.7207 149.315C74.549 150.756 66.3969 150.468 58.4808 147.834C46.1593 143.729 38.6071 134.961 34.9391 122.565C33.6313 118.122 33.0216 113.569 33.0216 108.927C33.0413 98.112 33.0413 87.2968 33.0413 76.4816Z" fill="#CBAC77"/>
<path d="M253 67.2573C253 71.472 253.029 75.6868 252.99 79.9015C252.931 88.49 252.97 97.0686 252.705 105.647C252.577 109.763 251.957 113.868 251.318 117.944C250.708 121.84 247.149 124.176 243.195 123.59C239.596 123.053 236.843 119.614 237.423 115.856C238.751 107.138 238.918 98.3808 238.888 89.5934C238.81 70.2692 238.78 50.955 238.711 31.6308C238.701 28.5592 238.377 25.5174 236.951 22.7241C235.584 20.0502 233.48 18.3006 230.5 17.8831C228.917 17.6645 227.275 17.565 225.692 17.734C222.388 18.082 220.145 19.911 218.975 23.1019C217.825 26.2331 217.825 29.4737 217.835 32.7441C217.864 42.7243 217.903 52.7045 217.854 62.6847C217.835 66.7304 214.688 69.7822 210.774 69.7822C206.89 69.7822 203.704 66.6807 203.694 62.6648C203.654 51.0941 203.625 39.5235 203.753 27.9528C203.802 23.3404 204.953 18.907 207.165 14.8314C211.049 7.68426 217.225 4.09576 225.092 3.36017C230.392 2.86315 235.545 3.59874 240.255 6.2926C246.844 10.06 250.423 16.0243 252.046 23.3206C252.97 27.4955 252.95 31.7501 252.901 36.0046C252.832 41.6905 252.882 47.3764 252.882 53.0623C252.882 57.794 252.882 62.5256 252.882 67.2573C252.921 67.2573 252.96 67.2573 253 67.2573Z" fill="#CBAC77"/>
<path d="M135.114 75.9746C135.114 69.3742 135.104 62.7738 135.114 56.1733C135.124 51.2826 135.153 46.3919 135.192 41.5112C135.222 37.9326 138.005 34.9505 141.594 34.6125C145.144 34.2845 148.478 36.7497 149.146 40.2289C149.294 41.0042 149.343 41.8094 149.343 42.5947C149.353 64.2251 149.323 85.8554 149.373 107.476C149.392 115.448 151.988 122.506 157.328 128.45C160.17 131.621 163.7 133.699 167.771 134.852C173.701 136.532 179.65 136.581 185.58 134.951C193.879 132.665 198.914 126.949 201.707 118.967C202.907 115.538 203.605 112.009 203.703 108.361C203.811 104.384 206.88 101.402 210.774 101.392C214.628 101.382 217.952 104.345 217.824 108.211C217.362 122.416 212.554 134.613 200.93 143.321C195.374 147.486 188.914 149.484 182.089 150.23C174.301 151.085 166.69 150.17 159.442 147.088C149.736 142.953 143.236 135.577 139.018 125.995C136.245 119.693 135.104 113.043 135.114 106.164C135.133 96.0941 135.114 86.0344 135.114 75.9746Z" fill="#CBAC77"/>
<path d="M126.175 164.375C124.474 165.806 122.802 167.258 121.091 168.64C111.936 176.035 101.493 180.737 90.145 183.431C86.8213 184.216 83.4385 184.733 80.0656 185.26C76.2796 185.846 72.6805 183.053 72.179 179.256C71.6382 175.141 74.2933 171.552 78.2464 171.055C89.6927 169.604 100.411 166.085 109.832 159.216C113.775 156.343 117.355 152.953 121.072 149.773C124.012 147.258 127.67 147.188 130.66 149.633C131.151 150.031 131.623 150.448 132.125 150.836C140.474 157.387 149.334 163.053 159.039 167.377C169.719 172.129 180.654 172.725 191.893 170.011C203.222 167.288 212.701 161.492 220.352 152.616C222.879 149.683 226.842 149.146 229.802 151.214C233.421 153.739 233.981 158.58 231.021 162.059C226.655 167.188 221.67 171.572 216.006 175.18C206.654 181.135 196.427 184.405 185.482 185.628C172.747 187.049 160.829 184.326 149.412 178.719C141.713 174.942 134.485 170.419 127.562 165.359C127.11 165.051 126.657 164.723 126.175 164.375Z" fill="#CBAC77"/>
<path d="M183.849 73.1218C183.849 83.8972 183.859 94.6727 183.849 105.448C183.849 109.166 181.086 112.297 177.585 112.615C173.74 112.963 170.554 110.627 169.807 106.87C169.699 106.333 169.699 105.766 169.699 105.21C169.689 86.0444 169.708 66.8792 169.689 47.7141C169.689 42.8532 169.443 38.0122 167.801 33.38C165.51 26.9386 161.969 21.3918 155.725 18.2904C146.167 13.5488 136.569 13.4494 127.237 19.016C123.372 21.3222 120.688 24.7715 118.761 28.8471C117.354 31.8094 114.591 33.3203 111.336 32.9326C108.406 32.5847 106.026 30.3481 105.377 27.2865C105.003 25.5071 105.357 23.8371 106.164 22.2169C111.395 11.6502 119.655 4.72168 130.974 1.8986C143.797 -1.30222 155.951 0.646105 166.808 8.41953C175.55 14.682 180.496 23.6284 182.62 34.0957C183.436 38.1116 183.721 42.2866 183.81 46.4019C183.967 55.3086 183.849 64.2152 183.849 73.1218Z" fill="#CBAC77"/>
<path d="M14.5144 106.76C14.6619 114.394 14.9471 122.009 17.14 129.405C20.6309 141.224 26.8458 151.293 36.0009 159.484C39.0591 162.218 39.3935 166.711 36.7974 169.733C34.221 172.735 29.727 173.023 26.6589 170.27C13.1082 158.142 4.59229 143.102 1.70121 125.021C0.816181 119.484 0.747346 113.798 0.462171 108.172C0.275332 104.563 0.334334 100.945 0.363835 97.3268C0.403169 93.7979 2.5764 91.0245 5.76249 90.2492C8.86008 89.4937 12.0953 90.8456 13.59 93.7084C14.1211 94.7224 14.4259 95.955 14.4751 97.1081C14.5931 100.319 14.5144 103.54 14.5144 106.76Z" fill="#CBAC77"/>
</svg>
