<svg width="15" height="15" viewBox="0 0 15 15" fill="none" xmlns="http://www.w3.org/2000/svg">
<path d="M6.78673 2.19531C7.01173 1.50456 7.98898 1.50456 8.21323 2.19531L9.01573 4.66431C9.06476 4.81468 9.16007 4.94569 9.28803 5.03864C9.416 5.13158 9.57007 5.18169 9.72823 5.18181H12.3247C13.0515 5.18181 13.353 6.11181 12.7657 6.53931L10.6657 8.06481C10.5375 8.15783 10.442 8.28907 10.393 8.4397C10.3439 8.59033 10.3439 8.75262 10.3927 8.90331L11.1952 11.3723C11.4202 12.0631 10.629 12.6383 10.0402 12.2108L7.94023 10.6853C7.81214 10.5923 7.6579 10.5422 7.49961 10.5422C7.34131 10.5422 7.18708 10.5923 7.05898 10.6853L4.95898 12.2108C4.37098 12.6383 3.58048 12.0631 3.80473 11.3723L4.60723 8.90331C4.65611 8.75262 4.65602 8.59033 4.60698 8.4397C4.55794 8.28907 4.46246 8.15783 4.33423 8.06481L2.23498 6.54006C1.64773 6.11256 1.94998 5.18256 2.67598 5.18256H5.27173C5.43002 5.1826 5.58426 5.13256 5.71237 5.03961C5.84049 4.94665 5.93591 4.81555 5.98498 4.66506L6.78748 2.19606L6.78673 2.19531Z" fill="#FDBA74"/>
</svg>
